<svg width="20" height="20" viewBox="0 0 20 20" fill="none" xmlns="http://www.w3.org/2000/svg">
<path d="M9.99996 18.3999C9.74996 18.3999 9.49996 18.3416 9.29163 18.2249C7.73329 17.3749 4.99163 16.4749 3.27496 16.2499L3.03329 16.2166C1.94163 16.0833 1.04163 15.0583 1.04163 13.9499V3.88326C1.04163 3.22492 1.29996 2.62493 1.77496 2.19159C2.24996 1.75826 2.86663 1.54993 3.51663 1.60826C5.34996 1.74993 8.11663 2.66659 9.68329 3.64993L9.88329 3.76659C9.94163 3.79993 10.0666 3.79993 10.1166 3.77493L10.25 3.69159C11.8166 2.70826 14.5833 1.77493 16.425 1.61659C16.4416 1.61659 16.5083 1.61659 16.525 1.61659C17.1333 1.55826 17.7583 1.77493 18.225 2.20826C18.7 2.64159 18.9583 3.24159 18.9583 3.89992V13.9583C18.9583 15.0749 18.0583 16.0916 16.9583 16.2249L16.6833 16.2583C14.9666 16.4833 12.2166 17.3916 10.6916 18.2333C10.4916 18.3499 10.25 18.3999 9.99996 18.3999ZM3.31663 2.84993C3.04996 2.84993 2.80829 2.94159 2.61663 3.11659C2.40829 3.30826 2.29163 3.58326 2.29163 3.88326V13.9499C2.29163 14.4416 2.71663 14.9166 3.19163 14.9833L3.44163 15.0166C5.31663 15.2666 8.19163 16.2083 9.85829 17.1166C9.93329 17.1499 10.0416 17.1583 10.0833 17.1416C11.75 16.2166 14.6416 15.2666 16.525 15.0166L16.8083 14.9833C17.2833 14.9249 17.7083 14.4416 17.7083 13.9499V3.89159C17.7083 3.58326 17.5916 3.31659 17.3833 3.11659C17.1666 2.92493 16.8916 2.83326 16.5833 2.84993C16.5666 2.84993 16.5 2.84993 16.4833 2.84993C14.8916 2.99159 12.325 3.84993 10.925 4.72493L10.7916 4.81659C10.3333 5.09993 9.68329 5.09993 9.24163 4.82493L9.04163 4.70826C7.61663 3.83326 5.04996 2.98326 3.41663 2.84993C3.38329 2.84993 3.34996 2.84993 3.31663 2.84993Z" fill="#333333"/>
<path d="M10 17.7C9.65833 17.7 9.375 17.4166 9.375 17.075V4.57495C9.375 4.23328 9.65833 3.94995 10 3.94995C10.3417 3.94995 10.625 4.23328 10.625 4.57495V17.075C10.625 17.425 10.3417 17.7 10 17.7Z" fill="#333333"/>
<path d="M6.45837 7.69995H4.58337C4.24171 7.69995 3.95837 7.41662 3.95837 7.07495C3.95837 6.73328 4.24171 6.44995 4.58337 6.44995H6.45837C6.80004 6.44995 7.08337 6.73328 7.08337 7.07495C7.08337 7.41662 6.80004 7.69995 6.45837 7.69995Z" fill="#333333"/>
<path d="M7.08337 10.2H4.58337C4.24171 10.2 3.95837 9.91662 3.95837 9.57495C3.95837 9.23328 4.24171 8.94995 4.58337 8.94995H7.08337C7.42504 8.94995 7.70837 9.23328 7.70837 9.57495C7.70837 9.91662 7.42504 10.2 7.08337 10.2Z" fill="#333333"/>
</svg>
