<svg width="20" height="20" viewBox="0 0 20 20" fill="none" xmlns="http://www.w3.org/2000/svg">
<path d="M13.9167 16.4416H6.08332C5.46665 16.4416 4.84165 15.9999 4.63332 15.4249L1.18332 5.76657C0.75832 4.5499 1.06665 3.99157 1.39999 3.74157C1.73332 3.49157 2.35832 3.34157 3.40832 4.09157L6.65832 6.41657C6.75832 6.4749 6.84999 6.4999 6.91665 6.48324C6.99165 6.45824 7.04999 6.39157 7.09165 6.2749L8.55832 2.36657C8.99999 1.1999 9.64999 1.0249 9.99999 1.0249C10.35 1.0249 11 1.1999 11.4417 2.36657L12.9083 6.2749C12.95 6.38324 13.0083 6.45824 13.0833 6.48324C13.1583 6.50824 13.25 6.48324 13.3417 6.40824L16.3917 4.23324C17.5083 3.43324 18.1583 3.59157 18.5167 3.8499C18.8667 4.11657 19.1917 4.70824 18.7333 5.9999L15.3667 15.4249C15.1583 15.9999 14.5333 16.4416 13.9167 16.4416ZM2.23332 4.84157C2.24999 4.95824 2.28332 5.1249 2.36665 5.34157L5.81665 14.9999C5.84999 15.0832 5.99999 15.1916 6.08332 15.1916H13.9167C14.0083 15.1916 14.1583 15.0832 14.1833 14.9999L17.55 5.58324C17.6667 5.26657 17.7 5.0499 17.7083 4.9249C17.5833 4.96657 17.3917 5.05824 17.1167 5.25824L14.0667 7.43324C13.65 7.7249 13.1583 7.81657 12.7167 7.68324C12.275 7.5499 11.9167 7.1999 11.7333 6.7249L10.2667 2.81657C10.1583 2.5249 10.0583 2.38324 9.99999 2.31657C9.94165 2.38324 9.84165 2.5249 9.73332 2.80824L8.26665 6.71657C8.09165 7.19157 7.73332 7.54157 7.28332 7.6749C6.84165 7.80824 6.34165 7.71657 5.93332 7.4249L2.68332 5.0999C2.49165 4.96657 2.34165 4.88324 2.23332 4.84157Z" fill="#333333"/>
<path d="M14.5833 18.9583H5.41663C5.07496 18.9583 4.79163 18.6749 4.79163 18.3333C4.79163 17.9916 5.07496 17.7083 5.41663 17.7083H14.5833C14.925 17.7083 15.2083 17.9916 15.2083 18.3333C15.2083 18.6749 14.925 18.9583 14.5833 18.9583Z" fill="#333333"/>
<path d="M12.0833 12.2917H7.91663C7.57496 12.2917 7.29163 12.0084 7.29163 11.6667C7.29163 11.3251 7.57496 11.0417 7.91663 11.0417H12.0833C12.425 11.0417 12.7083 11.3251 12.7083 11.6667C12.7083 12.0084 12.425 12.2917 12.0833 12.2917Z" fill="#333333"/>
</svg>
