<svg width="20" height="20" viewBox="0 0 20 20" fill="none" xmlns="http://www.w3.org/2000/svg">
<path d="M14.1666 18.125H5.83329C2.15829 18.125 1.04163 17.0083 1.04163 13.3333V6.66667C1.04163 2.99167 2.15829 1.875 5.83329 1.875H14.1666C17.8416 1.875 18.9583 2.99167 18.9583 6.66667V13.3333C18.9583 17.0083 17.8416 18.125 14.1666 18.125ZM5.83329 3.125C2.84996 3.125 2.29163 3.69167 2.29163 6.66667V13.3333C2.29163 16.3083 2.84996 16.875 5.83329 16.875H14.1666C17.15 16.875 17.7083 16.3083 17.7083 13.3333V6.66667C17.7083 3.69167 17.15 3.125 14.1666 3.125H5.83329Z" fill="#333333"/>
<path d="M15.8333 7.29175H11.6666C11.325 7.29175 11.0416 7.00841 11.0416 6.66675C11.0416 6.32508 11.325 6.04175 11.6666 6.04175H15.8333C16.175 6.04175 16.4583 6.32508 16.4583 6.66675C16.4583 7.00841 16.175 7.29175 15.8333 7.29175Z" fill="#333333"/>
<path d="M15.8333 10.625H12.5C12.1583 10.625 11.875 10.3417 11.875 10C11.875 9.65833 12.1583 9.375 12.5 9.375H15.8333C16.175 9.375 16.4583 9.65833 16.4583 10C16.4583 10.3417 16.175 10.625 15.8333 10.625Z" fill="#333333"/>
<path d="M15.8333 13.9583H14.1666C13.825 13.9583 13.5416 13.6749 13.5416 13.3333C13.5416 12.9916 13.825 12.7083 14.1666 12.7083H15.8333C16.175 12.7083 16.4583 12.9916 16.4583 13.3333C16.4583 13.6749 16.175 13.9583 15.8333 13.9583Z" fill="#333333"/>
<path d="M7.08328 10.0333C5.90828 10.0333 4.94995 9.07493 4.94995 7.89993C4.94995 6.72493 5.90828 5.7666 7.08328 5.7666C8.25828 5.7666 9.21662 6.72493 9.21662 7.89993C9.21662 9.07493 8.25828 10.0333 7.08328 10.0333ZM7.08328 7.0166C6.59995 7.0166 6.19995 7.4166 6.19995 7.89993C6.19995 8.38327 6.59995 8.78327 7.08328 8.78327C7.56662 8.78327 7.96662 8.38327 7.96662 7.89993C7.96662 7.4166 7.56662 7.0166 7.08328 7.0166Z" fill="#333333"/>
<path d="M10 14.2332C9.68338 14.2332 9.40838 13.9916 9.37504 13.6666C9.28338 12.7666 8.55838 12.0416 7.65004 11.9582C7.26671 11.9249 6.88338 11.9249 6.50004 11.9582C5.59171 12.0416 4.86671 12.7582 4.77504 13.6666C4.74171 14.0082 4.43338 14.2666 4.09171 14.2249C3.75004 14.1916 3.50004 13.8832 3.53338 13.5416C3.68338 12.0416 4.87504 10.8499 6.38338 10.7166C6.84171 10.6749 7.30838 10.6749 7.76671 10.7166C9.26671 10.8582 10.4667 12.0499 10.6167 13.5416C10.65 13.8832 10.4 14.1916 10.0584 14.2249C10.0417 14.2332 10.0167 14.2332 10 14.2332Z" fill="#333333"/>
</svg>
